<?xml version="1.0" encoding="UTF-8"?>
<!-- Generated by Pixelmator Pro 3.7 -->
<svg width="2000" height="2000" viewBox="0 0 2000 2000" xmlns="http://www.w3.org/2000/svg">
    <g id="g1">
        <g id="g2">
            <path id="path1" fill="#000000" fill-rule="evenodd" stroke="none" d="M 1807.923828 1251.083984 C 1809.550781 1250.107422 1809.623047 1250.433594 1809.994141 1248.630859 C 1793.650391 1244.365234 1794.025391 1253.701172 1777.041016 1251.652344 C 1762.298828 1249.875 1716.064453 1213.259766 1612.341797 1211.414063 C 1558.357422 1210.455078 1563.162109 1225.675781 1519.808594 1257.689453 C 1522.033203 1258.199219 1522.900391 1258.396484 1546.402344 1247.34375 C 1554.203125 1253.095703 1643.912109 1319.259766 1643.912109 1319.259766 C 1655.660156 1330.751953 1675.347656 1374.238281 1675.347656 1374.238281 C 1675.347656 1374.238281 1689.298828 1379.587891 1693.279297 1385.890625 C 1698.607422 1394.320313 1710.046875 1414.283203 1707.310547 1424.828125 C 1704.171875 1436.917969 1624.373047 1445.496094 1598.986328 1423.669922 C 1590.976563 1416.783203 1602.453125 1412.714844 1595.695313 1404.621094 C 1564.277344 1366.988281 1451.349609 1333.986328 1433.494141 1311.71875 C 1428.824219 1305.896484 1418.277344 1296.974609 1413.607422 1291.150391 C 1413.607422 1291.150391 1385.185547 1299.679688 1370.408203 1302.783203 C 1342.126953 1308.722656 1359.96875 1305.601563 1243.925781 1326.787109 C 1253.386719 1432.806641 1253.136719 1432.681641 1254.080078 1436.763672 C 1268.542969 1499.40625 1286.761719 1502.634766 1261.238281 1542.101563 C 1248.152344 1562.335938 1243.535156 1555.857422 1219.224609 1556.791016 C 1215.480469 1556.935547 1183.193359 1558.175781 1174.333984 1543.486328 C 1164.958984 1527.941406 1171.927734 1526.875 1186.722656 1516.523438 C 1180.556641 1506.091797 1176.351563 1494.605469 1170.619141 1483.929688 C 1136.886719 1421.113281 1058.275391 1329.615234 1051.103516 1313.853516 C 1020.103577 1245.708984 1089.289063 1173.96875 1086.210938 1170.408203 C 1083.792969 1167.609375 1050.560547 1221.054688 1048.494141 1226.962891 C 1043.275391 1241.876953 1033.291016 1259.865234 1035.308594 1293.169922 C 972.978516 1279.320313 896.09375 1257.890625 854.763672 1237.041016 C 842.816406 1231.013672 835.181641 1226.416016 834.435547 1227.294922 C 833.808594 1228.029297 880.033203 1254.083984 903.876953 1263.681641 C 920.318359 1270.300781 847.9375 1317.404297 842.162109 1321.212891 C 814.240234 1339.619141 731.072266 1380.833984 728.033203 1382.787109 C 723.181641 1387.974609 727.84375 1438.324219 732.796875 1450.240234 C 733.537109 1452.017578 734.283203 1450.949219 754.523438 1460.597656 C 761.228516 1477.070313 769.101563 1493.046875 776.001953 1509.439453 C 785.470703 1531.931641 684.833984 1531.423828 661.787109 1508.765625 C 635.919922 1483.333984 678.222656 1483.945313 620.800781 1356.851563 C 618.277344 1351.269531 606.507813 1298.982422 610.328125 1281 C 614.544922 1261.15625 671.826172 1152.513672 678.664063 1139.980469 C 579.5 1275.949219 470.880859 1271.6875 315.382813 1269.25 C 298.054688 1268.978516 279.537109 1261.128906 263.423828 1267.503906 C 240.035156 1276.755859 181.017578 1343.292969 175 1350.728516 C 155.236328 1375.150391 148.181641 1401.582031 146.796875 1422.722656 C 146.546875 1426.515625 160.761719 1430.742188 162.757813 1435.125 C 170.976563 1453.171875 179.457031 1473.849609 166.685547 1477.576172 C 150.8125 1482.205078 69.560547 1518.980469 51.560547 1450.501953 C 45.890625 1428.935547 85.146484 1341.142578 105.138672 1311.123047 C 140.246094 1258.408203 250.71875 1103.308594 260.466797 1091.148438 C 260.939453 1090.556641 314.566406 1094.791016 347.310547 1068.261719 C 434.71875 997.447266 330.226563 951.816406 294.953125 902.9375 C 215.423828 792.732422 299.099609 630.603516 555.029297 580.460938 C 819.394531 528.666016 959.044922 548.199219 992.068359 514.558594 C 1024.287109 481.736328 971.445313 441.013672 966.267578 437.023438 C 950.244141 424.673828 928.775391 423.974609 925.640625 419.751953 C 922.505859 415.529297 922.931641 409.710938 947.462891 411.6875 C 976.849609 414.054688 996.478516 429.796875 1000.007874 432.626953 C 1054.662109 476.457031 1056.216797 565.970703 951.675781 594.472656 C 893.128906 610.433594 513.441406 643.951172 436.972656 724.078125 C 368.78125 795.529297 423.263672 836.935547 447.128906 842.105469 C 461.826172 845.289063 499.621094 809.230469 604.802734 811.099609 C 751.277344 813.703125 1143.580078 927.037109 1302.847656 945.599609 C 1541.365234 973.398438 1675.388672 835.15625 1708.496094 874.642578 C 1715.859375 883.423828 1719.880859 895.505859 1729.326172 901.998047 C 1732.572266 904.228516 1791.892578 917.212891 1795.75 916.539063 C 1837.414063 909.265625 1877.328125 894.181641 1918.185547 883.248047 C 1937.896484 877.974609 1945.619141 886.089844 1947.240234 887.794922 C 1955.103516 896.058594 1948.082031 897.966797 1877.001953 1018.474609 C 1879.660156 1029.541016 1904.369141 1088.378906 1896.724609 1105.474609 C 1886.330078 1128.716797 1861.957031 1156.441406 1861.279297 1166.248047 C 1861.052734 1169.537109 1886.984375 1206.099609 1830.90625 1245.564453 C 1826.423828 1248.716797 1789.431641 1274.75 1765.583984 1266.205078 C 1760.113281 1264.244141 1748.767578 1260.179688 1701.230469 1232.501953 C 1707.298828 1233.587891 1713.792969 1230.673828 1719.720703 1232.363281 C 1732.642578 1236.044922 1744.076172 1243.820313 1756.736328 1248.318359 C 1760.599609 1249.691406 1791.625 1260.712891 1807.923828 1251.083984 Z"/>
            <path id="path2" fill="#f7f7f6" fill-rule="evenodd" stroke="none" d="M 1601.5 999.068359 C 1601.876953 996.451172 1601.917969 993.791016 1602.294922 991.173828 C 1610.0625 937.175781 1652.513672 892.126953 1676.404297 879.033203 C 1712.964844 858.996094 1739.794922 948.787109 1740.369141 954.210938 C 1740.423828 954.732422 1741.386719 979.699219 1735.089844 958.109375 C 1724.988281 923.474609 1710.056641 893.552734 1699.382813 884.285156 C 1697.884766 882.984375 1688.373047 874.724609 1674.617188 885.5 C 1629.539063 920.8125 1618.755859 965.238281 1611.650391 987.267578 C 1608.435547 997.238281 1629.375 976.78125 1632.097656 977.0625 C 1639.345703 977.8125 1612.919922 997.46875 1607.162109 1003.6875 C 1599.986328 1011.439453 1601.490234 1000.675781 1601.5 999.068359 Z"/>
            <path id="path3" fill="#f2f2f1" fill-rule="evenodd" stroke="none" d="M 1856.056641 936.058594 C 1861.361328 932.146484 1904.40625 900.419922 1926.755859 893.769531 C 1930.59375 892.628906 1929.621094 896.972656 1923.085938 899.707031 C 1897.300781 910.492188 1837.158203 958.080078 1836.902344 958.072266 C 1829.630859 957.847656 1848.611328 942.322266 1856.056641 936.058594 Z"/>
            <path id="path4" fill="#f2f2ef" fill-rule="evenodd" stroke="none" d="M 1863.445313 1132.818359 C 1848.414063 1145.716797 1861.402344 1150.572266 1857.544922 1156.976563 C 1854.054688 1162.773438 1849.097656 1141.410156 1854.841797 1132.037109 C 1862.003906 1120.357422 1891.931641 1089.716797 1877.414063 1115.929688 C 1870.8125 1127.851563 1864.365234 1131.941406 1863.445313 1132.818359 Z"/>
            <path id="path5" fill="#fcfcfc" fill-rule="evenodd" stroke="none" d="M 1778.314453 1140.521484 C 1770.060547 1139.625 1769.902344 1139.839844 1763.292969 1134.976563 C 1755.386719 1129.158203 1743.505859 1110.923828 1743.509766 1110.337891 C 1743.519531 1108.634766 1744.398438 1107.785156 1764.773438 1111.671875 C 1790.105469 1116.503906 1788.898438 1121.173828 1797.208984 1145.525391 C 1797.365234 1145.980469 1796.589844 1150.917969 1793.460938 1146.341797 C 1788.474609 1139.044922 1787.175781 1140.523438 1778.314453 1140.521484 Z"/>
            <path id="path6" fill="#fafbfb" fill-rule="evenodd" stroke="none" d="M 1840.945313 1212.966797 C 1843.996094 1213.226563 1855.578125 1213.421875 1852.013672 1217.404297 C 1841.365234 1229.298828 1840.021484 1228.214844 1839 1227.390625 C 1837.300781 1226.021484 1841.449219 1221.480469 1834.177734 1216.525391 C 1830.320313 1213.894531 1828.576172 1214.449219 1829.763672 1212.054688 C 1830.626953 1210.314453 1833.699219 1211.240234 1840.945313 1212.966797 Z"/>
        </g>
    </g>
</svg>
