<?xml version="1.0" encoding="UTF-8" standalone="no"?>
<!DOCTYPE svg PUBLIC "-//W3C//DTD SVG 1.1//EN" "http://www.w3.org/Graphics/SVG/1.1/DTD/svg11.dtd">
<svg width="100%" height="100%" viewBox="0 0 2000 2000" version="1.1" xmlns="http://www.w3.org/2000/svg" xmlns:xlink="http://www.w3.org/1999/xlink" xml:space="preserve" xmlns:serif="http://www.serif.com/" style="fill-rule:evenodd;clip-rule:evenodd;stroke-linejoin:round;stroke-miterlimit:2;">
    <g transform="matrix(1.953125,0,0,1.953125,0,0)">
        <path d="M1.5,0L1023.999,0C1025.047,2.726 1023.999,2.844 1023.999,36.5L1023.999,1023.999C1021.851,1025.156 1021.661,1023.999 993.5,1023.999L0,1023.999C-1.027,1022.092 0,1019.666 0,1017.5L0,0C0.197,-0.46 1.303,0.46 1.5,0Z" style="fill:rgb(254,254,254);"/>
        <path d="M925.657,640.555C926.49,640.055 926.527,640.222 926.717,639.299C918.349,637.115 918.541,641.895 909.845,640.846C902.297,639.936 878.625,621.189 825.519,620.244C797.879,619.753 800.339,627.546 778.142,643.937C779.281,644.198 779.725,644.299 791.758,638.64C795.752,641.585 841.683,675.461 841.683,675.461C847.698,681.345 857.778,703.61 857.778,703.61C857.778,703.61 864.921,706.349 866.959,709.576C869.687,713.892 875.544,724.113 874.143,729.512C872.536,735.702 831.679,740.094 818.681,728.919C814.58,725.393 820.456,723.31 816.996,719.166C800.91,699.898 743.091,683.001 733.949,671.6C731.558,668.619 726.158,664.051 723.767,661.069C723.767,661.069 709.215,665.436 701.649,667.025C687.169,670.066 696.304,668.468 636.89,679.315C641.734,733.597 641.606,733.533 642.089,735.623C649.494,767.696 658.822,769.349 645.754,789.556C639.054,799.916 636.69,796.599 624.243,797.077C622.326,797.151 605.795,797.786 601.259,790.265C596.459,782.306 600.027,781.76 607.602,776.46C604.445,771.119 602.292,765.238 599.357,759.772C582.086,727.61 541.837,680.763 538.165,672.693C522.293,637.803 557.716,601.072 556.14,599.249C554.902,597.816 537.887,625.18 536.829,628.205C534.157,635.841 529.045,645.051 530.078,662.103C498.165,655.012 458.8,644.04 437.639,633.365C431.522,630.279 427.613,627.925 427.231,628.375C426.91,628.751 450.577,642.091 462.785,647.005C471.203,650.394 434.144,674.511 431.187,676.461C416.891,685.885 374.309,706.987 372.753,707.987C370.269,710.643 372.656,736.422 375.192,742.523C375.571,743.433 375.953,742.886 386.316,747.826C389.749,756.26 393.78,764.44 397.313,772.833C402.161,784.349 350.635,784.089 338.835,772.488C325.591,759.467 347.25,759.78 317.85,694.708C316.558,691.85 310.532,665.079 312.488,655.872C314.647,645.712 343.975,590.087 347.476,583.67C296.704,653.286 241.091,651.104 161.476,649.856C152.604,649.717 143.123,645.698 134.873,648.962C122.898,653.699 92.681,687.766 89.6,691.573C79.481,704.077 75.869,717.61 75.16,728.434C75.032,730.376 82.31,732.54 83.332,734.784C87.54,744.024 91.882,754.611 85.343,756.519C77.216,758.889 35.615,777.718 26.399,742.657C23.496,731.615 43.595,686.665 53.831,671.295C71.806,644.305 128.368,564.894 133.359,558.668C133.601,558.365 161.058,560.533 177.823,546.95C222.576,510.693 169.076,487.33 151.016,462.304C110.297,405.879 153.139,322.869 284.175,297.196C419.53,270.677 491.031,280.678 507.939,263.454C524.435,246.649 497.38,225.799 494.729,223.756C486.525,217.433 475.533,217.075 473.928,214.913C472.323,212.751 472.541,209.772 485.101,210.784C500.147,211.996 510.197,220.056 512.004,221.505C539.987,243.946 540.783,289.777 487.258,304.37C457.282,312.542 262.882,329.703 223.73,370.728C188.816,407.311 216.711,428.511 228.93,431.158C236.455,432.788 255.806,414.326 309.659,415.283C384.654,416.616 585.513,474.643 667.058,484.147C789.179,498.38 857.799,427.6 874.75,447.817C878.52,452.313 880.579,458.499 885.415,461.823C887.077,462.965 917.449,469.613 919.424,469.268C940.756,465.544 961.192,457.821 982.111,452.223C992.203,449.523 996.157,453.678 996.987,454.551C1001.013,458.782 997.418,459.759 961.025,521.459C962.386,527.125 975.037,557.25 971.123,566.003C965.801,577.903 953.322,592.098 952.975,597.119C952.859,598.803 966.136,617.523 937.424,637.729C935.129,639.343 916.189,652.672 903.979,648.297C901.178,647.293 895.369,645.212 871.03,631.041C874.137,631.597 877.462,630.105 880.497,630.97C887.113,632.855 892.967,636.836 899.449,639.139C901.427,639.842 917.312,645.485 925.657,640.555Z"/>
        <path d="M819.968,511.523C820.161,510.183 820.182,508.821 820.375,507.481C824.352,479.834 846.087,456.769 858.319,450.065C877.038,439.806 890.775,485.779 891.069,488.556C891.097,488.823 891.59,501.606 888.366,490.552C883.194,472.819 875.549,457.499 870.084,452.754C869.317,452.088 864.447,447.859 857.404,453.376C834.324,471.456 828.803,494.202 825.165,505.481C823.519,510.586 834.24,500.112 835.634,500.256C839.345,500.64 825.815,510.704 822.867,513.888C819.193,517.857 819.963,512.346 819.968,511.523Z" style="fill:rgb(247,247,246);"/>
        <path d="M887.823,994.611C891.998,994.616 896.173,994.621 900.347,994.626L901.157,995.552C901.155,998.506 901.683,1006.453 899.506,1006.535C899.057,1006.552 869.98,1008.632 894.458,1009C902.971,1009.128 910.24,1007.665 908.559,1012.515C908.058,1013.96 907.749,1014.849 889.479,1013.695C886.54,1013.509 887.419,1006.883 887.456,999.5C887.469,996.949 887.408,997.043 887.823,994.611Z" style="fill:rgb(254,254,254);"/>
        <path d="M910.497,583.947C906.271,583.488 906.19,583.598 902.806,581.108C898.758,578.129 892.675,568.793 892.677,568.493C892.682,567.621 893.132,567.186 903.564,569.176C916.534,571.65 915.916,574.041 920.171,586.509C920.251,586.742 919.854,589.27 918.252,586.927C915.699,583.191 915.034,583.948 910.497,583.947Z" style="fill:rgb(252,252,252);"/>
        <path d="M873.49,1003.987C870.35,1004.085 862.542,1003.599 862.473,1003.527C861.766,1002.78 862.096,994.562 862.155,994.392C862.846,992.409 880.867,993.548 881.067,993.669C881.18,993.737 882.511,1002.314 880.173,1004.018C876.823,1003.418 876.896,1003.607 873.49,1003.987Z" style="fill:rgb(254,254,254);"/>
        <path d="M887.55,992.461C887.748,988.066 887.477,985.822 891.568,987.349C900.035,990.509 908.821,985.395 908.801,991.507C908.758,1004.415 908.755,1004.39 908.251,1006.342L906.504,1006.54C903.197,1006.326 902.327,1005.658 903.591,1002.572C904.852,999.495 905.21,993.147 902.486,992.716C898.016,992.01 890.424,992.183 887.55,992.461Z" style="fill:rgb(254,254,254);"/>
        <path d="M873.49,1003.987C876.896,1003.607 876.823,1003.418 880.173,1004.018C879.789,1004.985 877.335,1007.953 881.457,1008.722C883.555,1009.114 884.341,1013.758 880.509,1013.794C861.948,1013.966 861.608,1014.605 860.688,1013.312C858.415,1010.114 859.702,1009.102 863.541,1008.729C865.011,1008.587 864.438,1007.996 864.52,1006.5C867.275,1005.279 867.845,1004.999 869.378,1007.581C871.043,1010.385 875.813,1007.42 874.911,1005.534C874.609,1004.902 873.792,1004.618 873.49,1003.987Z" style="fill:rgb(253,253,253);"/>
        <path d="M950.301,479.262C953.017,477.259 975.056,461.015 986.499,457.61C988.464,457.026 987.966,459.25 984.62,460.65C971.418,466.172 940.625,490.537 940.494,490.533C936.771,490.418 946.489,482.469 950.301,479.262Z" style="fill:rgb(242,242,241);"/>
        <path d="M937.633,1003.5C937.644,993.77 936.835,988.422 939.524,987.887C942.617,987.272 942.779,988.311 942.769,991.512C942.704,1012.264 943.233,1013.679 940.519,1013.828C936.378,1014.056 937.648,1006.288 937.633,1003.5Z" style="fill:white;"/>
        <path d="M954.084,580.003C946.388,586.607 953.038,589.093 951.063,592.372C949.276,595.34 946.738,584.402 949.679,579.603C953.346,573.623 968.669,557.935 961.236,571.356C957.856,577.46 954.555,579.554 954.084,580.003Z" style="fill:rgb(242,242,239);"/>
        <path d="M860.691,991.029C860.425,986.671 861.943,987.095 864.519,987.135C880.544,987.383 883.679,984.909 882.993,989.59C882.758,991.198 882.022,991.362 860.691,991.029Z" style="fill:rgb(254,254,254);"/>
        <path d="M942.564,621.039C944.126,621.172 950.056,621.272 948.231,623.311C942.779,629.401 942.091,628.846 941.568,628.424C940.698,627.723 942.822,625.398 939.099,622.861C937.124,621.514 936.231,621.798 936.839,620.572C937.281,619.681 938.854,620.155 942.564,621.039Z" style="fill:rgb(250,251,251);"/>
        <path d="M984.502,997.951C985.322,997.822 986.143,997.693 986.963,997.564C988.584,1001.683 989.669,1001.818 987.726,1005.865C986.684,1008.037 987.44,1008.07 988.424,1010.27C987.101,1011.431 987.19,1011.367 985.958,1012.686C984.802,1004.301 988.076,1003.708 984.502,997.951Z" style="fill:rgb(236,236,236);"/>
        <path d="M874.495,1000.066C867.332,999.841 867.121,1000.17 866.578,999.44C863.3,995.037 885.289,997.848 874.495,1000.066Z" style="fill:rgb(230,230,230);"/>
        <path d="M984.502,997.951C979.731,997.879 979.754,997.95 979.349,997.873C975.193,997.083 984.354,990.905 986.963,997.564C986.143,997.693 985.322,997.822 984.502,997.951Z" style="fill:rgb(229,229,229);"/>
        <path d="M924.104,994.877C924.183,995.178 925.091,998.637 925.091,998.637C925.901,1001.714 925.576,1003.197 922.561,1002.17C921.348,1001.757 921.444,1001.324 922.659,995.592C923.049,993.755 924.093,994.877 924.104,994.877Z" style="fill:rgb(228,228,228);"/>
        <path d="M897.08,1000.498C894.551,1005.994 890.327,1000.567 892.684,998.795C895.374,996.773 896.922,1000.155 897.08,1000.498Z" style="fill:rgb(223,223,223);"/>
        <path d="M955.319,581.5C957.506,581.557 958.796,581.593 957.613,583.5C956.091,585.952 955.644,585.871 955.39,585.825C952.07,585.226 955.091,581.761 955.319,581.5Z" style="fill:rgb(32,13,0);"/>
        <path d="M282.493,468.501C282.593,468.356 285.133,464.651 284.695,468.543C284.511,470.171 283.718,469.673 282.493,468.501Z" style="fill:rgb(48,47,45);"/>
        <path d="M317.874,633.323C317.871,633.137 317.823,630.414 319.472,631.647C320.791,632.634 319.336,632.584 317.874,633.323Z" style="fill:rgb(193,193,193);"/>
        <path d="M129.622,563.5C130.326,566.321 128.779,565.411 128.651,565.308C128.152,564.912 128.323,564.593 128.354,564.535C128.762,563.774 129.187,564.31 129.622,563.5Z" style="fill:rgb(35,37,36);"/>
        <path d="M763.507,632.525C765.263,631.957 766.199,630.694 766.113,632.424C766.091,632.848 765.351,633.003 765.329,633.427C764.688,632.491 764.594,632.618 763.507,632.525Z" style="fill:rgb(49,49,49);"/>
        <path d="M906.504,1006.54L908.251,1006.342C908.005,1006.597 908.484,1007.149 908.239,1007.403C908.131,1007.515 908.116,1007.342 906.504,1006.54Z" style="fill:rgb(243,243,243);"/>
        <path d="M926.717,639.299C926.662,639.566 927.58,639.168 927.525,639.435C927.49,639.606 927.39,639.516 925.657,640.555L926.717,639.299Z" style="fill:rgb(34,35,33);"/>
    </g>
</svg>
